{
    "accessors" : [
        {
            "bufferView" : 0,
            "componentType" : 5123,
            "count" : 804,
            "max" : [
                511
            ],
            "min" : [
                0
            ],
            "type" : "SCALAR"
        },
        {
            "bufferView" : 1,
            "componentType" : 5126,
            "count" : 512,
            "max" : [
                -0.1978032886981964,
                2.2487616539001465,
                1.0057710409164429
            ],
            "min" : [
                -2.284327507019043,
                -0.03064865805208683,
                -1.017569899559021
            ],
            "type" : "VEC3"
        },
        {
            "bufferView" : 2,
            "componentType" : 5126,
            "count" : 512,
            "max" : [
                0.999924898147583,
                0.9987472295761108,
                0.9999992847442627
            ],
            "min" : [
                -0.9999215006828308,
                -0.9987454414367676,
                -0.9999998807907104
            ],
            "type" : "VEC3"
        },
        {
            "bufferView" : 3,
            "componentType" : 5121,
            "count" : 51,
            "max" : [
                24
            ],
            "min" : [
                0
            ],
            "type" : "SCALAR"
        },
        {
            "bufferView" : 4,
            "componentType" : 5126,
            "count" : 25,
            "max" : [
                0.9912652969360352,
                1.615233302116394,
                1.0002729892730713
            ],
            "min" : [
                -1.0,
                0.0,
                -1.003391981124878
            ],
            "type" : "VEC3"
        },
        {
            "bufferView" : 5,
            "componentType" : 5126,
            "count" : 25,
            "max" : [
                0.0007268087938427925,
                0.999997079372406,
                0.9999975562095642
            ],
            "min" : [
                -0.8035126328468323,
                -0.5952876210212708,
                -1.0
            ],
            "type" : "VEC3"
        }
    ],
    "asset" : {
        "generator" : "Khronos Blender glTF 2.0 exporter",
        "version" : "2.0"
    },
    "bufferViews" : [
        {
            "buffer" : 0,
            "byteLength" : 1608,
            "byteOffset" : 0,
            "target" : 34963
        },
        {
            "buffer" : 0,
            "byteLength" : 6144,
            "byteOffset" : 1608,
            "target" : 34962
        },
        {
            "buffer" : 0,
            "byteLength" : 6144,
            "byteOffset" : 7752,
            "target" : 34962
        },
        {
            "buffer" : 0,
            "byteLength" : 51,
            "byteOffset" : 13896,
            "target" : 34963
        },
        {
            "buffer" : 0,
            "byteLength" : 300,
            "byteOffset" : 13948,
            "target" : 34962
        },
        {
            "buffer" : 0,
            "byteLength" : 300,
            "byteOffset" : 14248,
            "target" : 34962
        }
    ],
    "buffers" : [
        {
            "byteLength" : 14548,
            "uri" : "Marker.bin"
        }
    ],
    "materials" : [
        {
            "name" : "Material",
            "pbrMetallicRoughness" : {
                "baseColorFactor" : [
                    0.640000066757203,
                    0.032122084977061816,
                    0.03105943845301029,
                    1.0
                ],
                "metallicFactor" : 0.0
            }
        },
        {
            "name" : "Material.001",
            "pbrMetallicRoughness" : {
                "baseColorFactor" : [
                    0.640000066757203,
                    0.019911131559478212,
                    0.014692673306057946,
                    1.0
                ],
                "metallicFactor" : 0.0
            }
        }
    ],
    "meshes" : [
        {
            "name" : "Plane.003",
            "primitives" : [
                {
                    "attributes" : {
                        "NORMAL" : 2,
                        "POSITION" : 1
                    },
                    "indices" : 0,
                    "material" : 1
                },
                {
                    "attributes" : {
                        "NORMAL" : 5,
                        "POSITION" : 4
                    },
                    "indices" : 3,
                    "material" : 0
                }
            ]
        }
    ],
    "nodes" : [
        {
            "name" : "Camera",
            "rotation" : [
                0.483536034822464,
                0.33687159419059753,
                -0.20870360732078552,
                0.7804827094078064
            ],
            "translation" : [
                7.481131553649902,
                5.34366512298584,
                6.5076398849487305
            ]
        },
        {
            "name" : "Lamp",
            "rotation" : [
                0.16907575726509094,
                0.7558802962303162,
                -0.27217137813568115,
                0.570947527885437
            ],
            "scale" : [
                1.0,
                1.0,
                0.9999999403953552
            ],
            "translation" : [
                4.076245307922363,
                5.903861999511719,
                -1.0054539442062378
            ]
        },
        {
            "name" : "Plane",
            "rotation" : [
                9.990007709959059e-10,
                7.186920214508064e-08,
                -0.5229570269584656,
                0.8523591756820679
            ],
            "scale" : [
                2.799999952316284,
                2.799999952316284,
                2.799999952316284
            ],
            "translation" : [
                -1.2409026622772217,
                -2.5004665851593018,
                0.7571048140525818
            ]
        },
        {
            "mesh" : 0,
            "name" : "Plane.001",
            "rotation" : [
                9.990028804196527e-10,
                7.186920214508064e-08,
                -0.5229570269584656,
                0.8523591756820679
            ],
            "scale" : [
                0.07100000232458115,
                0.07100000232458115,
                0.07100000232458115
            ],
            "translation" : [
                0.0,
                0.21236109733581543,
                -0.0
            ]
        },
        {
            "name" : "Plane.002",
            "rotation" : [
                9.990007709959059e-10,
                7.186920214508064e-08,
                -0.5229570269584656,
                0.8523591756820679
            ],
            "scale" : [
                2.799999952316284,
                2.799999952316284,
                2.799999952316284
            ],
            "translation" : [
                -1.2409026622772217,
                -2.5004665851593018,
                0.7571048140525818
            ]
        },
        {
            "name" : "Plane.003",
            "rotation" : [
                9.990007709959059e-10,
                7.186920214508064e-08,
                -0.5229570269584656,
                0.8523591756820679
            ],
            "scale" : [
                2.799999952316284,
                2.799999952316284,
                2.799999952316284
            ],
            "translation" : [
                -1.2409026622772217,
                -2.5004665851593018,
                0.7571048140525818
            ]
        },
        {
            "name" : "Plane.004",
            "rotation" : [
                9.990007709959059e-10,
                7.186920214508064e-08,
                -0.5229570269584656,
                0.8523591756820679
            ],
            "scale" : [
                2.799999952316284,
                2.799999952316284,
                2.799999952316284
            ],
            "translation" : [
                -1.2409026622772217,
                -2.5004665851593018,
                0.7571048140525818
            ]
        }
    ],
    "scene" : 0,
    "scenes" : [
        {
            "name" : "Scene",
            "nodes" : [
                6,
                5,
                4,
                3,
                2,
                1,
                0
            ]
        }
    ]
}
