{
    "accessors" : [
        {
            "bufferView" : 0,
            "componentType" : 5123,
            "count" : 13530,
            "max" : [
                4352
            ],
            "min" : [
                0
            ],
            "type" : "SCALAR"
        },
        {
            "bufferView" : 1,
            "componentType" : 5126,
            "count" : 4353,
            "max" : [
                -0.4904097318649292,
                0.7269094586372375,
                -0.2943655848503113
            ],
            "min" : [
                -1.9953182935714722,
                -0.7324283123016357,
                -1.9383937120437622
            ],
            "type" : "VEC3"
        },
        {
            "bufferView" : 2,
            "componentType" : 5126,
            "count" : 4353,
            "max" : [
                0.999908447265625,
                1,
                0.9991455078125
            ],
            "min" : [
                -0.999908447265625,
                -1,
                -0.9987182021141052
            ],
            "type" : "VEC3"
        },
        {
            "bufferView" : 3,
            "componentType" : 5121,
            "count" : 708,
            "max" : [
                227
            ],
            "min" : [
                0
            ],
            "type" : "SCALAR"
        },
        {
            "bufferView" : 4,
            "componentType" : 5126,
            "count" : 228,
            "max" : [
                0.36720776557922363,
                0.7232898473739624,
                -0.31647104024887085
            ],
            "min" : [
                -1.0689952373504639,
                -0.722202479839325,
                -1.481460452079773
            ],
            "type" : "VEC3"
        },
        {
            "bufferView" : 5,
            "componentType" : 5126,
            "count" : 228,
            "max" : [
                0.8034912943840027,
                1,
                0.999969482421875
            ],
            "min" : [
                -0.8163090944290161,
                -1,
                -0.999969482421875
            ],
            "type" : "VEC3"
        }
    ],
    "asset" : {
        "generator" : "Khronos Blender glTF 2.0 I/O",
        "version" : "2.0"
    },
    "bufferViews" : [
        {
            "buffer" : 0,
            "byteLength" : 27060,
            "byteOffset" : 0,
            "target" : 34963
        },
        {
            "buffer" : 0,
            "byteLength" : 52236,
            "byteOffset" : 27060,
            "target" : 34962
        },
        {
            "buffer" : 0,
            "byteLength" : 52236,
            "byteOffset" : 79296,
            "target" : 34962
        },
        {
            "buffer" : 0,
            "byteLength" : 708,
            "byteOffset" : 131532,
            "target" : 34963
        },
        {
            "buffer" : 0,
            "byteLength" : 2736,
            "byteOffset" : 132240,
            "target" : 34962
        },
        {
            "buffer" : 0,
            "byteLength" : 2736,
            "byteOffset" : 134976,
            "target" : 34962
        }
    ],
    "buffers" : [
        {
            "byteLength" : 137712,
            "uri" : "Marker.bin"
        }
    ],
    "extensions" : {},
    "materials" : [
        {
            "name" : "Material.001",
            "pbrMetallicRoughness" : {
                "baseColorFactor" : [
                    0.640000066757203,
                    0.019911131559478212,
                    0.014692673306057946,
                    1
                ],
                "metallicFactor" : 0
            }
        },
        {
            "name" : "Material.002",
            "pbrMetallicRoughness" : {
                "baseColorFactor" : [
                    0.64000004529953,
                    0.032122086733579636,
                    0.03105943836271763,
                    1
                ]
            }
        },
        {
            "name" : "Material.003",
            "pbrMetallicRoughness" : {
                "baseColorFactor" : [
                    0.64000004529953,
                    0.019911130890250206,
                    0.014692673459649086,
                    1
                ]
            }
        }
    ],
    "meshes" : [
        {
            "name" : "Plane.001",
            "primitives" : [
                {
                    "attributes" : {
                        "NORMAL" : 2,
                        "POSITION" : 1
                    },
                    "indices" : 0,
                    "material" : 2
                },
                {
                    "attributes" : {
                        "NORMAL" : 5,
                        "POSITION" : 4
                    },
                    "indices" : 3,
                    "material" : 1
                }
            ]
        }
    ],
    "nodes" : [
        {
            "name" : "Camera",
            "rotation" : [
                0.483536034822464,
                0.33687159419059753,
                -0.20870360732078552,
                0.7804827094078064
            ],
            "translation" : [
                7.481131553649902,
                5.34366512298584,
                6.5076398849487305
            ]
        },
        {
            "name" : "Camera.001",
            "rotation" : [
                0.483536034822464,
                -0.20870360732078552,
                -0.33687159419059753,
                0.7804827094078064
            ],
            "translation" : [
                7.481131553649902,
                6.5076398849487305,
                -5.34366512298584
            ]
        },
        {
            "name" : "Lamp",
            "rotation" : [
                0.16907575726509094,
                0.7558802962303162,
                -0.27217137813568115,
                0.570947527885437
            ],
            "scale" : [
                1,
                1,
                0.9999999403953552
            ],
            "translation" : [
                4.076245307922363,
                5.903861999511719,
                -1.0054539442062378
            ]
        },
        {
            "name" : "Lamp.001",
            "rotation" : [
                0.16907577216625214,
                -0.27217140793800354,
                -0.7558804154396057,
                0.5709474682807922
            ],
            "scale" : [
                1,
                0.9999999403953552,
                1
            ],
            "translation" : [
                4.076245307922363,
                -1.0054539442062378,
                -5.903861999511719
            ]
        },
        {
            "name" : "Plane.002",
            "rotation" : [
                9.990007709959059e-10,
                7.186920214508064e-08,
                -0.5229570269584656,
                0.8523591756820679
            ],
            "scale" : [
                2.799999952316284,
                2.799999952316284,
                2.799999952316284
            ],
            "translation" : [
                -1.2409026622772217,
                -2.5004665851593018,
                0.7571048140525818
            ]
        },
        {
            "name" : "Plane.003",
            "rotation" : [
                9.990007709959059e-10,
                7.186920214508064e-08,
                -0.5229570269584656,
                0.8523591756820679
            ],
            "scale" : [
                2.799999952316284,
                2.799999952316284,
                2.799999952316284
            ],
            "translation" : [
                -1.2409026622772217,
                -2.5004665851593018,
                0.7571048140525818
            ]
        },
        {
            "mesh" : 0,
            "name" : "Plane.008",
            "rotation" : [
                9.990027693973502e-10,
                -0.5229570269584656,
                -7.186920214508064e-08,
                0.8523590564727783
            ],
            "scale" : [
                0.28493595123291016,
                0.28493592143058777,
                0.28493595123291016
            ],
            "translation" : [
                -0.15252338349819183,
                0.027919692918658257,
                -0.4447515606880188
            ]
        },
        {
            "children" : [
                1,
                3,
                6
            ],
            "name" : "Yup2Zup",
            "rotation" : [
                0.7071068286895752,
                0,
                0,
                0.7071067094802856
            ],
            "scale" : [
                1,
                1.0000001192092896,
                1.0000001192092896
            ]
        }
    ],
    "scene" : 0,
    "scenes" : [
        {
            "name" : "Scene",
            "nodes" : [
                7,
                5,
                4,
                2,
                0
            ]
        }
    ]
}
